<svg xmlns="http://www.w3.org/2000/svg" width="24" height="24" fill="none" viewBox="0 0 24 24">
  <path fill="#000000" fill-rule="evenodd" d="M14.1 2.391a3.896 3.896 0 0 1 5.509 5.51l-7.594 7.594c-.428.428-.69.69-.98.917a5.995 5.995 0 0 1-1.108.684c-.334.159-.685.276-1.259.467l-2.672.891-.642.214a1.598 1.598 0 0 1-2.022-2.022l1.105-3.314c.191-.574.308-.925.467-1.259a5.99 5.99 0 0 1 .685-1.107c.227-.291.488-.553.916-.98L14.1 2.39ZM5.96 16.884l-.844-.845.728-2.185c.212-.636.3-.895.414-1.135.14-.295.313-.573.513-.83.164-.21.356-.404.83-.879l5.891-5.89a6.05 6.05 0 0 0 1.349 2.04 6.05 6.05 0 0 0 2.04 1.348l-5.891 5.89c-.475.475-.668.667-.878.83a4.554 4.554 0 0 1-.83.514c-.24.114-.5.202-1.136.414l-2.185.729Zm12.116-9.572a4.025 4.025 0 0 1-.455-.129 4.536 4.536 0 0 1-1.72-1.084 4.542 4.542 0 0 1-1.084-1.72 4.028 4.028 0 0 1-.13-.455l.473-.472a2.396 2.396 0 0 1 3.388 3.388l-.472.472ZM3.25 22a.75.75 0 0 1 .75-.75h16v1.5H4a.75.75 0 0 1-.75-.75Z" clip-rule="evenodd"/>
</svg>
