<svg xmlns="http://www.w3.org/2000/svg" width="24" height="24" fill="none" viewBox="0 0 24 24">
    <path fill="#000000"
        d="M16.75 9.593V7A4.756 4.756 0 0 0 12 2.25 4.756 4.756 0 0 0 7.25 7v2.594a4.749 4.749 0 0 0-3 4.406v3A4.756 4.756 0 0 0 9 21.75h6A4.756 4.756 0 0 0 19.75 17v-3c0-2-1.246-3.708-3-4.407ZM8.75 7A3.254 3.254 0 0 1 12 3.75 3.254 3.254 0 0 1 15.25 7v2.275c-.085-.005-.164-.025-.25-.025H9c-.086 0-.165.021-.25.025V7Zm9.5 10A3.254 3.254 0 0 1 15 20.25H9A3.254 3.254 0 0 1 5.75 17v-3A3.254 3.254 0 0 1 9 10.75h6A3.254 3.254 0 0 1 18.25 14v3Zm-5.5-2v1a.75.75 0 0 1-1.5 0v-1a.75.75 0 0 1 1.5 0Z" />
</svg>