<svg xmlns="http://www.w3.org/2000/svg" width="24" height="24" fill="none" viewBox="0 0 24 24">
    <path fill="#000000"
        d="M11.999 12.75a5.256 5.256 0 0 0 5.25-5.25 5.256 5.256 0 0 0-5.25-5.25 5.256 5.256 0 0 0-5.25 5.25 5.256 5.256 0 0 0 5.25 5.25Zm0-9a3.754 3.754 0 0 1 3.75 3.75 3.754 3.754 0 0 1-3.75 3.75 3.754 3.754 0 0 1-3.75-3.75 3.754 3.754 0 0 1 3.75-3.75Zm7.75 14.217v1.01a3.77 3.77 0 0 1-.961 2.523.746.746 0 0 1-1.06.059.75.75 0 0 1-.057-1.06c.373-.416.579-.956.579-1.52v-1.011c0-1.514-1.004-2.824-2.443-3.185a1.02 1.02 0 0 0-.746.096 6.308 6.308 0 0 1-6.116.003 1.009 1.009 0 0 0-.751-.1c-1.439.362-2.444 1.672-2.444 3.186v1.01c0 .566.206 1.106.579 1.522a.75.75 0 0 1-1.117 1 3.773 3.773 0 0 1-.961-2.521v-1.011c0-2.202 1.47-4.11 3.577-4.64a2.525 2.525 0 0 1 1.854.248 4.798 4.798 0 0 0 4.644-.003 2.53 2.53 0 0 1 1.849-.244c2.103.527 3.574 2.435 3.574 4.638Z" />
</svg>