<svg xmlns="http://www.w3.org/2000/svg" width="24" height="24" fill="none" viewBox="0 0 24 24">
    <path fill="#000000"
        d="m20.062 12.647.517-1.932c.604-2.255.907-3.382.68-4.358a4 4 0 0 0-1.162-2.011c-.731-.685-1.859-.987-4.114-1.591-2.255-.605-3.383-.907-4.358-.68a4 4 0 0 0-2.011 1.162c-.587.626-.893 1.543-1.348 3.209l-.244.905-.517 1.932c-.605 2.255-.907 3.382-.68 4.358a4 4 0 0 0 1.162 2.011c.731.685 1.859.987 4.114 1.592 2.032.544 3.149.843 4.064.73.1-.012.198-.03.294-.052a4 4 0 0 0 2.011-1.16c.685-.732.987-1.86 1.592-4.115Z" />
    <path fill="#000000"
        d="m2.505 14.715.517 1.932c.604 2.255.907 3.383 1.592 4.114a4 4 0 0 0 2.01 1.16c.976.228 2.104-.074 4.36-.678 2.254-.604 3.382-.906 4.113-1.591.06-.057.12-.116.176-.176a9.14 9.14 0 0 1-1.014-.15c-.696-.138-1.523-.36-2.501-.622l-.107-.029-.025-.006c-1.064-.285-1.953-.524-2.663-.78-.747-.27-1.425-.603-2.002-1.143a5.5 5.5 0 0 1-1.596-2.765c-.18-.769-.128-1.522.012-2.304.134-.749.374-1.646.662-2.722l.535-1.994.018-.07c-1.92.517-2.931.823-3.605 1.454a4 4 0 0 0-1.161 2.012c-.228.975.074 2.103.679 4.358Z" />
</svg>