<svg xmlns="http://www.w3.org/2000/svg" width="24" height="24" fill="none" viewBox="0 0 24 24">
    <path fill="#000000" fill-rule="evenodd"
        d="m16.394 2.021.066.018c1.1.295 1.971.528 2.656.776.701.253 1.273.542 1.744.983a4.75 4.75 0 0 1 1.378 2.389c.147.628.112 1.268-.02 2.001-.127.718-.36 1.589-.655 2.688l-.536 1.999c-.294 1.099-.528 1.97-.775 2.655-.254.701-.543 1.273-.984 1.744a4.75 4.75 0 0 1-2.302 1.358 4.75 4.75 0 0 1-1.106 1.567c-.471.441-1.043.73-1.744.984-.685.248-1.556.481-2.655.776l-.067.018c-1.1.294-1.97.527-2.688.656-.733.131-1.373.166-2.002.02a4.75 4.75 0 0 1-2.388-1.38c-.44-.47-.73-1.042-.984-1.743-.247-.685-.48-1.556-.775-2.656l-.536-1.998c-.294-1.1-.528-1.97-.656-2.688-.131-.733-.166-1.373-.02-2.002a4.75 4.75 0 0 1 1.38-2.388c.47-.44 1.042-.73 1.743-.984.685-.247 1.556-.48 2.655-.775l.034-.01.751-.2c.392-1.399.736-2.388 1.408-3.105a4.75 4.75 0 0 1 2.388-1.379c.629-.146 1.268-.111 2.002.02.717.128 1.588.362 2.688.656ZM7.455 7.503c-1.093.293-1.876.505-2.478.722-.61.22-.967.424-1.227.668a3.25 3.25 0 0 0-.944 1.634c-.08.348-.079.76.036 1.397.115.647.332 1.457.637 2.597l.518 1.932c.305 1.14.523 1.95.746 2.567.22.61.424.968.668 1.228a3.25 3.25 0 0 0 1.634.944c.347.08.76.078 1.397-.036.647-.115 1.457-.332 2.597-.637 1.14-.306 1.95-.523 2.568-.747.609-.22.967-.424 1.227-.667.138-.13.263-.27.376-.419a10.077 10.077 0 0 1-.554-.095c-.672-.134-1.48-.35-2.475-.617l-.058-.015c-1.099-.295-1.97-.528-2.655-.776-.701-.253-1.273-.542-1.744-.983a4.75 4.75 0 0 1-1.379-2.389c-.146-.628-.111-1.268.02-2.002.128-.717.362-1.588.656-2.687l.434-1.62Zm5.987-4.661c-.638-.115-1.05-.117-1.397-.036a3.25 3.25 0 0 0-1.634.944c-.436.465-.705 1.185-1.171 2.893-.076.278-.156.577-.243.902l-.518 1.932c-.305 1.14-.522 1.95-.637 2.597-.115.637-.117 1.05-.036 1.397a3.25 3.25 0 0 0 .944 1.634c.26.244.618.447 1.227.668.618.223 1.428.44 2.568.746 1.025.275 1.785.478 2.403.6.615.123 1.033.153 1.375.111.075-.01.146-.022.216-.038a3.25 3.25 0 0 0 1.634-.944c.244-.26.448-.618.668-1.227.223-.618.44-1.428.746-2.568l.518-1.932c.305-1.14.522-1.95.637-2.597.114-.637.117-1.05.036-1.397a3.25 3.25 0 0 0-.944-1.634c-.26-.244-.618-.447-1.227-.668-.619-.223-1.428-.44-2.568-.746-1.14-.305-1.95-.522-2.597-.637Z"
        clip-rule="evenodd" />
</svg>