<svg xmlns="http://www.w3.org/2000/svg" width="34" height="34" fill="none" viewBox="0 0 34 34">
    <g clip-path="url(#a)">
        <path fill="#000000" fill-rule="evenodd"
            d="M27.24 15.29c-.983-.666-2.478-1.392-4.579-2.407l-4.755-2.3c-1.69-.816-2.914-1.408-3.836-1.765-.965-.374-1.404-.409-1.615-.35a1.876 1.876 0 0 0-1.316 1.351c-.053.212-.007.65.393 1.605.382.913 1.005 2.12 1.867 3.788l.04.078c.184.355.336.649.432.942l7.487-.058a.768.768 0 1 1 .012 1.537l-7.454.058c-.085.324-.24.643-.43 1.037l-.039.079c-.816 1.689-1.407 2.913-1.765 3.835-.374.965-.409 1.405-.35 1.615.181.65.697 1.152 1.351 1.316.212.053.65.007 1.605-.392.913-.383 2.12-1.006 3.788-1.867l4.693-2.425c2.073-1.071 3.548-1.836 4.514-2.53.97-.696 1.203-1.165 1.198-1.589-.006-.424-.252-.887-1.24-1.557Zm.864-1.27c1.094.742 1.897 1.598 1.913 2.808.016 1.21-.764 2.087-1.838 2.858-1.068.767-2.646 1.582-4.643 2.614l-4.79 2.475c-1.625.84-2.887 1.492-3.864 1.901-.943.395-1.816.655-2.572.465a3.412 3.412 0 0 1-2.458-2.393c-.21-.751.028-1.63.397-2.583.383-.988 1.002-2.267 1.798-3.914l.017-.035c.279-.577.35-.739.378-.893.032-.173.03-.351-.007-.523-.032-.154-.107-.314-.402-.883l-.018-.035c-.84-1.625-1.492-2.887-1.9-3.864-.395-.943-.656-1.816-.466-2.572a3.412 3.412 0 0 1 2.393-2.458c.751-.21 1.631.028 2.583.397.988.383 2.267 1.002 3.914 1.798l4.854 2.347c2.024.978 3.622 1.751 4.71 2.49Z"
            clip-rule="evenodd" />
    </g>
    <defs>
        <clipPath id="a">
            <path fill="#fff" d="M0 0h24v24H0z" transform="rotate(44.239 8.349 20.651)" />
        </clipPath>
    </defs>
</svg>